<svg width="18" height="25" viewBox="0 0 18 25" fill="none" xmlns="http://www.w3.org/2000/svg">
<g clip-path="url(#clip0_263_95)">
<path d="M17.8381 7.25265C16.8649 3.94531 14.9187 3.74252 14.3879 3.82955C13.8571 3.91659 13.0901 4.23601 12.8247 4.00362C12.5593 3.77124 12.0878 0.0583136 9.25694 0C9.25694 0 7.42836 0.115757 6.75072 1.30553C6.07219 2.4953 5.45294 4.75822 5.45294 4.75822C5.45294 4.75822 4.56828 4.35176 4.2737 4.75822C3.97911 5.16467 2.85825 6.44061 2.53359 6.81834C2.20892 7.19607 1.47201 8.03683 1.67813 8.55905C1.88425 9.08126 2.38585 8.70439 2.32658 9.08126C2.26731 9.45812 0.911137 10.3285 1.2358 10.8803C1.56047 11.4312 2.20892 12.8534 2.44512 12.9691C2.68132 13.0849 2.97591 12.4469 3.24131 12.7367C3.5067 13.0266 3.35897 13.9483 3.94903 14.0388C4.53909 14.1293 4.15515 14.6228 4.21442 15.1154C4.2737 15.6089 4.30289 16.3922 4.15515 16.8274C4.00742 17.2626 2.72202 21.6431 3.39435 22.9486C4.06669 24.2541 6.51452 25.3568 8.04762 24.8921C9.58072 24.4282 12.1763 23.2384 13.6501 20.9755C15.1257 18.7126 18.8112 10.56 17.8381 7.25265ZM15.2239 11.5374C15.2239 11.5374 12.8645 19.757 10.5645 22.6004C8.26436 25.4439 5.6104 24.0313 4.78502 23.4125C3.95964 22.7937 4.2737 21.5169 4.23477 20.8789C4.19585 20.2409 5.70948 17.3392 5.70948 17.0685C5.70948 16.7978 6.14208 15.9657 6.16154 15.4052C6.181 14.8447 5.80768 14.6506 6.01734 14.3225C6.22701 13.9935 6.37828 12.4269 6.18189 12.1371C5.9855 11.8472 5.53344 12.0013 5.2185 11.963C4.90357 11.9247 4.82572 11.7698 4.80537 11.4025C4.78502 11.0352 4.56917 10.6679 3.99945 10.3198C3.42974 9.97163 3.33066 9.70095 3.42974 9.21703C3.52793 8.73312 3.80306 8.73312 3.97999 8.41457C4.15692 8.09515 3.80306 7.97939 3.80306 7.97939C3.80306 7.97939 3.74291 7.51375 4.09677 6.96282C4.45063 6.41189 5.7776 6.52764 6.33759 6.38229C6.89757 6.23695 8.48994 5.86008 8.16616 5.86008C7.84149 5.86008 6.83918 5.74433 6.30839 5.51194C5.7776 5.27956 5.9448 1.03485 8.63768 0.435176C11.1598 -0.126201 11.488 2.25334 11.488 3.49098C11.488 4.72862 10.0337 5.23169 9.51172 5.01932C8.98977 4.80696 8.83407 5.29 9.14901 5.48322C9.46394 5.67644 10.545 5.56068 11.4491 5.30915C12.3532 5.05762 13.2087 4.17769 14.0836 4.47709C14.9585 4.77649 15.2832 6.6817 15.5583 7.30052C15.8334 7.91934 15.2239 11.5374 15.2239 11.5374Z" fill="white"/>
<path d="M2.68133 5.45452C2.94672 5.16469 4.60987 4.52585 3.39524 2.84346C3.39524 2.84346 1.99218 2.34997 1.18627 3.56846C0.380348 4.78696 -0.532612 6.03417 0.381233 6.70173C1.29596 7.36929 2.41593 5.74434 2.68133 5.45452Z" fill="white"/>
</g>
<defs>
<clipPath id="clip0_263_95">
<rect width="18" height="25" fill="white"/>
</clipPath>
</defs>
</svg>
